<svg xmlns="http://www.w3.org/2000/svg" width="1200" height="340" viewBox="0 0 1200 340">
  <rect width="1200" height="340" fill="#070809"/>
  
    <rect x="720" width="480" height="340" fill="#0B0D10"/>
    <g transform="translate(805 18) scale(0.59)">
      <path fill="#6F7782" d="M92 62 H364 L438 136 V220 H340 L314 190 H198 L172 220 H74 V136 Z"/>
      <path fill="#6F7782" d="M74 292 H172 L198 322 H314 L340 292 H438 V376 L364 450 H148 L74 376 Z"/>
      <rect x="168" y="190" width="176" height="132" rx="10" fill="#D9553B"/>
      <circle cx="126" cy="256" r="50" fill="#B8BEC6"/>
      <circle cx="126" cy="256" r="25" fill="#6F7782"/>
      <path fill="#B8BEC6" d="M300 206 H326 V306 H300 Z M334 206 H348 V306 H334 Z"/></g>
    <text x="64" y="58" fill="#D9553B" font-family="Consolas,monospace" font-size="12" font-weight="700" letter-spacing="2.4">US EQUITY RESEARCH SUB-BRAND</text>
    <text x="64" y="154" fill="#F1EEE7" font-family="'Arial Narrow',Arial,sans-serif" font-size="76" font-weight="800" letter-spacing="9">JANOS</text>
    <rect x="64" y="181" width="176" height="8" fill="#D9553B"/>
    <text x="64" y="222" fill="#D6D4CE" font-family="Arial,sans-serif" font-size="20" font-weight="500">Every price has a time. Every action has a record.</text>
    <text x="64" y="278" fill="#8F96A1" font-family="Consolas,monospace" font-size="11" font-weight="600" letter-spacing="2">POINT-IN-TIME  /  RELEASE  /  RECONCILIATION</text>
</svg>