<svg xmlns="http://www.w3.org/2000/svg" width="1200" height="320" viewBox="0 0 1200 320">
  
  
    <g transform="translate(44 24) scale(0.53)">
      <path fill="#6F7782" d="M92 62 H364 L438 136 V220 H340 L314 190 H198 L172 220 H74 V136 Z"/>
      <path fill="#6F7782" d="M74 292 H172 L198 322 H314 L340 292 H438 V376 L364 450 H148 L74 376 Z"/>
      <rect x="168" y="190" width="176" height="132" rx="10" fill="#D9553B"/>
      <circle cx="126" cy="256" r="50" fill="#B8BEC6"/>
      <circle cx="126" cy="256" r="25" fill="#6F7782"/>
      <path fill="#B8BEC6" d="M300 206 H326 V306 H300 Z M334 206 H348 V306 H334 Z"/></g>
    <text x="360" y="132" fill="#F1EEE7" font-family="'Arial Narrow',Arial,sans-serif" font-size="72" font-weight="800" letter-spacing="8">JANOS</text>
    <rect x="360" y="158" width="186" height="8" fill="#D9553B"/>
    <text x="360" y="210" fill="#B6BBC2" font-family="Arial,sans-serif" font-size="20" font-weight="500">Every price has a time. Every action has a record.</text>
    <text x="360" y="260" fill="#B6BBC2" font-family="Consolas,monospace" font-size="11" font-weight="600" letter-spacing="2">US EQUITY RESEARCH SUB-BRAND / PROOF ENGINE</text>
</svg>