<svg xmlns="http://www.w3.org/2000/svg" viewBox="0 0 1200 340" role="img" aria-labelledby="title desc">
  <title id="title">JANOS endorsed banner</title>
  <desc id="desc">JANOS launch banner using the Confluence S family system and Ledger Blue rail.</desc>
  <defs>
    <pattern id="grid" width="34" height="34" patternUnits="userSpaceOnUse">
      <path d="M34 0H0V34" fill="none" stroke="#345D7E" stroke-opacity=".10" />
    </pattern>
  </defs>
  <rect width="1200" height="340" fill="#E6ECEE" />
  <rect width="1200" height="340" fill="url(#grid)" />
  <path d="M42 28V312M42 50H62M42 290H62" stroke="#345D7E" stroke-opacity=".32" />
  <text x="72" y="52" fill="#345D7E" font-family="'IBM Plex Mono', Consolas, monospace" font-size="11" font-weight="600" letter-spacing="2">JANOS / US EQUITY MARKET LAB</text>
  <text x="70" y="162" fill="#1E1D1A" font-family="'Source Sans Pro', 'Segoe UI', sans-serif" font-size="82" font-weight="650" letter-spacing="10">JANOS</text>
  <line x1="76" y1="190" x2="362" y2="190" stroke="#345D7E" stroke-width="7" />
  <text x="76" y="237" fill="#3E5361" font-family="Georgia, 'Noto Serif SC', serif" font-size="23">Every price has a time. Every action has a record.</text>
  <text x="76" y="280" fill="#61737E" font-family="'IBM Plex Mono', Consolas, monospace" font-size="13" letter-spacing="1.2">SZIGOR RESEARCH / POINT-IN-TIME EVIDENCE</text>
  <g transform="translate(758 -30) scale(.76)" fill="none" stroke-linejoin="round" stroke-linecap="square">
    <path d="M 414 92 C 342 50 224 58 145 122 C 78 176 106 224 223 244 C 239 247 248 251 256 256 C 264 261 273 265 289 268 C 404 288 433 337 368 391 C 291 455 174 461 96 420" stroke="#8B867D" stroke-width="24" />
    <path d="M 418 128 C 348 88 238 92 166 146 C 108 189 130 218 230 237 C 242 241 250 248 256 256 C 262 264 270 271 282 275 C 381 295 402 323 346 367 C 280 419 182 421 101 385" stroke="#345D7E" stroke-width="24" />
    <path d="M 218 240 C 237 244 248 250 256 256 C 264 262 275 268 294 272" stroke="#1E1D1A" stroke-width="34" stroke-linecap="butt" />
    <circle cx="256" cy="256" r="7" fill="#BC6548" stroke="none" />
  </g>
</svg>
