<svg xmlns="http://www.w3.org/2000/svg" width="1200" height="340" viewBox="0 0 1200 340">
  <rect width="1200" height="340" fill="#070809"/>
  
    <rect x="720" width="480" height="340" fill="#0B0D10"/>
    <g transform="translate(805 18) scale(0.59)">
      <path fill="#F3B52E" fill-rule="evenodd" d="
        M256 38 L474 420 H332 L291 354 L256 474 L221 354 L180 420 H38 Z
        M256 142 L382 360 H312 L281 308 L256 388 L231 308 L200 360 H130 Z"/>
      <path fill="#A56D00" d="M221 354 L256 474 L291 354 L275 328 L256 389 L237 328 Z"/></g>
    <text x="64" y="58" fill="#F3B52E" font-family="Consolas,monospace" font-size="12" font-weight="700" letter-spacing="2.4">ON-CHAIN RESEARCH SUB-BRAND</text>
    <text x="64" y="154" fill="#F1EEE7" font-family="'Arial Narrow',Arial,sans-serif" font-size="76" font-weight="800" letter-spacing="9">LASZLO</text>
    <rect x="64" y="181" width="176" height="8" fill="#F3B52E"/>
    <text x="64" y="222" fill="#D6D4CE" font-family="Arial,sans-serif" font-size="20" font-weight="500">Signal is only useful when action is bounded.</text>
    <text x="64" y="278" fill="#8F96A1" font-family="Consolas,monospace" font-size="11" font-weight="600" letter-spacing="2">EVENT  /  GATE  /  STATE</text>
</svg>