<svg xmlns="http://www.w3.org/2000/svg" viewBox="0 0 1200 340" role="img" aria-labelledby="title desc">
  <title id="title">LASZLO endorsed banner</title>
  <desc id="desc">LASZLO launch banner using the Confluence S family system and Signal Ochre rail.</desc>
  <rect width="1200" height="340" fill="#1E1D1A" />
  <path d="M42 28V312M42 50H62M42 290H62" stroke="#F3EEE4" stroke-opacity=".22" />
  <text x="72" y="52" fill="#C9912F" font-family="'IBM Plex Mono', Consolas, monospace" font-size="11" font-weight="600" letter-spacing="2">LASZLO / ON-CHAIN MARKET LAB</text>
  <text x="70" y="162" fill="#FBF8F1" font-family="'Source Sans Pro', 'Segoe UI', sans-serif" font-size="82" font-weight="650" letter-spacing="10">LASZLO</text>
  <line x1="76" y1="190" x2="390" y2="190" stroke="#C9912F" stroke-width="7" />
  <text x="76" y="237" fill="#B8B1A7" font-family="Georgia, 'Noto Serif SC', serif" font-size="23">Signal is only useful when action is bounded.</text>
  <text x="76" y="280" fill="#858078" font-family="'IBM Plex Mono', Consolas, monospace" font-size="13" letter-spacing="1.2">SZIGOR RESEARCH / EVIDENCE-BOUND EXECUTION</text>
  <g transform="translate(758 -30) scale(.76)" fill="none" stroke-linejoin="round" stroke-linecap="square">
    <path d="M 414 92 C 342 50 224 58 145 122 C 78 176 106 224 223 244 C 239 247 248 251 256 256 C 264 261 273 265 289 268 C 404 288 433 337 368 391 C 291 455 174 461 96 420" stroke="#C9912F" stroke-width="24" />
    <path d="M 418 128 C 348 88 238 92 166 146 C 108 189 130 218 230 237 C 242 241 250 248 256 256 C 262 264 270 271 282 275 C 381 295 402 323 346 367 C 280 419 182 421 101 385" stroke="#77736D" stroke-width="24" />
    <path d="M 218 240 C 237 244 248 250 256 256 C 264 262 275 268 294 272" stroke="#FBF8F1" stroke-width="34" stroke-linecap="butt" />
    <circle cx="256" cy="256" r="7" fill="#BC6548" stroke="none" />
  </g>
</svg>
