<svg xmlns="http://www.w3.org/2000/svg" width="1280" height="640" viewBox="0 0 1280 640">
  <rect width="1280" height="640" fill="#070809"/>
  
    <rect x="740" width="540" height="640" fill="#0B0D10"/>
    <g transform="translate(800 68) scale(0.86)">
      <path fill="#F3B52E" fill-rule="evenodd" d="
        M256 38 L474 420 H332 L291 354 L256 474 L221 354 L180 420 H38 Z
        M256 142 L382 360 H312 L281 308 L256 388 L231 308 L200 360 H130 Z"/>
      <path fill="#A56D00" d="M221 354 L256 474 L291 354 L275 328 L256 389 L237 328 Z"/></g>
    <text x="78" y="106" fill="#F3B52E" font-family="Consolas,monospace" font-size="13" font-weight="700" letter-spacing="2.5">ON-CHAIN RESEARCH SUB-BRAND</text>
    <text x="78" y="270" fill="#F1EEE7" font-family="'Arial Narrow',Arial,sans-serif" font-size="88" font-weight="800" letter-spacing="8">LASZLO</text>
    <rect x="78" y="306" width="230" height="9" fill="#F3B52E"/>
    <text x="78" y="370" text-anchor="start" fill="#D6D4CE" font-family="Arial, sans-serif" font-size="24" font-weight="500" letter-spacing="0"><tspan x="78" dy="0">Signal is only useful when action is bounded.</tspan></text>
    <text x="78" y="454" fill="#8F96A1" font-family="Consolas,monospace" font-size="12" font-weight="600" letter-spacing="2">EVENT  /  GATE  /  STATE</text>
    <text x="78" y="562" fill="#626872" font-family="Consolas,monospace" font-size="11" font-weight="600" letter-spacing="1.8">SZIGOR RESEARCH / PROOF INSTRUMENTS / SYSTEM 02</text>
</svg>