<svg xmlns="http://www.w3.org/2000/svg" width="512" height="512" viewBox="0 0 512 512">
  
  
    <path fill="#070809" d="M60 74 H220 V156 L244 194 L220 228 V284 L244 318 L220 356 V438 H60 L22 400 V112 Z"/>
    <path fill="#070809" d="M452 74 H292 V156 L268 194 L292 228 V284 L268 318 L292 356 V438 H452 L490 400 V112 Z"/>
    <path fill="#070809" d="M60 74 H220 V112 H78 L60 130 Z M452 74 H292 V112 H434 L452 130 Z"/>
    <path fill="#F1EEE7" d="M256 142 L310 210 H282 V326 H230 V210 H202 Z"/>
</svg>