<svg xmlns="http://www.w3.org/2000/svg" viewBox="0 0 1200 340" role="img" aria-labelledby="title desc">
  <title id="title">Szigor Research banner</title>
  <desc id="desc">Editorial Szigor Research banner with the Confluence S and Evidence before action.</desc>
  <rect width="1200" height="340" fill="#F3EEE4" />
  <path d="M42 28V312M42 50H62M42 290H62" stroke="#D8D0C3" stroke-width="1" />
  <text x="72" y="52" fill="#BC6548" font-family="'IBM Plex Mono', Consolas, monospace" font-size="11" font-weight="600" letter-spacing="2">TWO SYSTEMS / ONE STANDARD OF PROOF</text>
  <text x="70" y="153" fill="#1E1D1A" font-family="Georgia, 'Noto Serif SC', serif" font-size="90" font-weight="500" letter-spacing="-2">Szigor</text>
  <text x="76" y="204" fill="#65615A" font-family="'Source Sans Pro', 'Segoe UI', sans-serif" font-size="23" font-weight="600" letter-spacing="8">RESEARCH</text>
  <line x1="76" y1="228" x2="278" y2="228" stroke="#BC6548" stroke-width="5" />
  <text x="76" y="268" fill="#65615A" font-family="'IBM Plex Mono', Consolas, monospace" font-size="15" letter-spacing="1.5">EVIDENCE BEFORE ACTION.</text>
  <g transform="translate(758 -30) scale(.76)" fill="none" stroke-linejoin="round" stroke-linecap="square">
    <path d="M 414 92 C 342 50 224 58 145 122 C 78 176 106 224 223 244 C 239 247 248 251 256 256 C 264 261 273 265 289 268 C 404 288 433 337 368 391 C 291 455 174 461 96 420" stroke="#C9912F" stroke-width="24" />
    <path d="M 418 128 C 348 88 238 92 166 146 C 108 189 130 218 230 237 C 242 241 250 248 256 256 C 262 264 270 271 282 275 C 381 295 402 323 346 367 C 280 419 182 421 101 385" stroke="#345D7E" stroke-width="24" />
    <path d="M 218 240 C 237 244 248 250 256 256 C 264 262 275 268 294 272" stroke="#1E1D1A" stroke-width="34" stroke-linecap="butt" />
    <circle cx="256" cy="256" r="7" fill="#BC6548" stroke="none" />
  </g>
  <path d="M1126 30h28v1h-28zM1140 16h1v29h-1zM1126 310h28v1h-28zM1140 296h1v29h-1z" fill="#65615A" opacity=".65" />
</svg>
